PathFileType	4	(X/Y/Z)	Walk1_0-155.trc
DataRate	CameraRate	NumFrames	NumMarkers	Units	OrigDataRate	OrigDataStartFrame	OrigNumFrames
30	30	10	22	m	30	77	155
Frame#	Time	Hip			RHip			RKnee			RAnkle			RBigToe			RSmallToe			RHeel			LHip			LKnee			LAnkle			LBigToe			LSmallToe			LHeel			Neck			Head			Nose			RShoulder			RElbow			RWrist			LShoulder			LElbow			LWrist		
		X1	Y1	Z1	X2	Y2	Z2	X3	Y3	Z3	X4	Y4	Z4	X5	Y5	Z5	X6	Y6	Z6	X7	Y7	Z7	X8	Y8	Z8	X9	Y9	Z9	X10	Y10	Z10	X11	Y11	Z11	X12	Y12	Z12	X13	Y13	Z13	X14	Y14	Z14	X15	Y15	Z15	X16	Y16	Z16	X17	Y17	Z17	X18	Y18	Z18	X19	Y19	Z19	X20	Y20	Z20	X21	Y21	Z21	X22	Y22	Z22
78	2.6	-0.6651896459594322	0.8633217389370523	0.3619932398349829	-0.6636317152449402	0.8635004424158299	0.4660284587503536	-0.6133994703825427	0.4909968568160272	0.43048061330747983	-0.6382437450200578	0.11923042847506139	0.36522944580163946	0.0	0.0	0.0	0.0	0.0	0.0	0.0	0.0	0.0	-0.6667582118771394	0.8640298495351413	0.25779136941344055	-0.5678677708922248	0.5142828435216901	0.2266757974416352	-0.8472297269422843	0.25163225610515244	0.2806169387838124	0.0	0.0	0.0	0.0	0.0	0.0	0.0	0.0	0.0	-0.750092095028924	1.4518139632642626	0.3444759041788604	-0.5544277683356768	1.7617367761820288	0.3699473159944871	-0.54887776069742	1.6818925076722158	0.37676750842103157	-0.7500216998139768	1.4487872267669792	0.5297935864441647	-0.6557442189344431	1.125262540413708	0.6170442957979665	-0.5656519779601195	0.8943809617654357	0.6327444682147995	-0.7574772417097679	1.4554676074735535	0.15144948033761207	-0.7294621899577636	1.1445104804298682	0.11970055440968382	-0.6869670049520897	0.8930233107855711	0.0992516797115844
79	2.6333333333333333	-0.6287722011286829	0.8781521365279311	0.36590679489444694	-0.6295026157167604	0.8761366157047248	0.47061538410450227	-0.601622072775298	0.49397558838001937	0.4322732937273019	-0.6414933511849062	0.11532343806914894	0.37692916554050626	0.0	0.0	0.0	0.0	0.0	0.0	0.0	0.0	0.0	-0.6279658565909096	0.8811532638431783	0.2608267336127669	-0.49695396636260414	0.5386116792171752	0.22733115473247564	-0.7698636614671142	0.28328468372952087	0.25782392036859086	0.0	0.0	0.0	0.0	0.0	0.0	0.0	0.0	0.0	-0.7059224354096006	1.4609337613708009	0.3450852304488692	-0.5189583265203784	1.7664084681931032	0.37805417423055543	-0.4874229101779863	1.6885205053523342	0.40096149612808313	-0.6999810259258712	1.4591853237595807	0.5327619355253221	-0.6084570859832531	1.1357086267966174	0.616089727527588	-0.4660238427213373	0.9077381585184184	0.6083916109573921	-0.6797560012446032	1.4566382658741295	0.18388071951248	-0.6839290748823006	1.1575537332349604	0.12031059948732445	-0.6744407305593165	0.9013417207636026	0.10081043319614481
80	2.6666666666666665	-0.5983370520434256	0.8926456214732167	0.3686630721277508	-0.6034507170149604	0.8903161279368746	0.47703247398212767	-0.5755762237260815	0.5026168849565511	0.4445238028188154	-0.6592485333585841	0.10984428794390834	0.38749351323161335	0.0	0.0	0.0	0.0	0.0	0.0	0.0	0.0	0.0	-0.5936764786759816	0.8957432769153199	0.2600347714916646	-0.39268796430035774	0.5663765771522369	0.2659869903068449	-0.6688112311554982	0.2663162635354561	0.273068550661667	0.0	0.0	0.0	0.0	0.0	0.0	0.0	0.0	0.0	-0.6709712709686669	1.4685349823382463	0.34321767116161456	-0.458814517582879	1.7701768785254108	0.3667766588281603	-0.4165420723469799	1.6974032837120612	0.42177727794479086	-0.667809807631036	1.46659922485603	0.5325442079622749	-0.5449476053841011	1.1642714386611128	0.6031339690893134	-0.45238565488800264	0.935038673917578	0.6190646694429829	-0.6364288101835565	1.4647960187885851	0.1845500208042676	-0.6660406615467411	1.1627002789651313	0.12720302012390247	-0.6495706156538115	0.9064052466058521	0.10636002859871704
81	2.7	-0.5651037651169895	0.8974090811456061	0.36861903870272283	-0.5733647128798576	0.891363339392664	0.4789289584019937	-0.5747163794253408	0.5251082605355564	0.42319888830343444	-0.6409657760750221	0.1126986027000115	0.37293836611877573	0.0	0.0	0.0	0.0	0.0	0.0	0.0	0.0	0.0	-0.5574695407372551	0.9039618421939227	0.2581679977332251	-0.33519387107517695	0.5808854663983571	0.2646284481232776	-0.5642307964567639	0.22472961781754858	0.27211222425244	0.0	0.0	0.0	0.0	0.0	0.0	0.0	0.0	0.0	-0.6307321143653927	1.4752192758903473	0.3425590818412094	-0.3777241478817441	1.7738732292841284	0.3281694546730783	-0.4409233891743692	1.689062945256623	0.3736412995024137	-0.6263274972276367	1.47410884185918	0.52745626495652	-0.4931865292970635	1.1721523231713749	0.6064074905298837	-0.34967774393883655	0.9374524014602973	0.6309756752676651	-0.6417500459075298	1.4773369107978096	0.15052435473372527	-0.6435761875044568	1.1645598843094607	0.13406739194118986	-0.6358076515540609	0.9148993738533914	0.09884334003434418
82	2.7333333333333334	-0.5256057072882105	0.9002681331576878	0.3669101896207076	-0.537325988355368	0.8950841514839651	0.481224341686772	-0.5692340271651657	0.5178319894224215	0.422260463509491	-0.6466953471427792	0.09921539851774024	0.36364094302047767	0.0	0.0	0.0	0.0	0.0	0.0	0.0	0.0	0.0	-0.5147837800295579	0.9055926143070079	0.25243543365255433	-0.2887968266579132	0.5800702922383792	0.26424025460549166	-0.4451576893904111	0.187403288310621	0.2679729983951814	0.0	0.0	0.0	0.0	0.0	0.0	0.0	0.0	0.0	-0.5863457306784177	1.4759969168554221	0.34834286434925815	-0.34857823400740257	1.7743605147301766	0.32805621505754096	-0.4021180160058826	1.6883073007494198	0.3702350005570105	-0.5776804409629934	1.473987692122389	0.5395065764455299	-0.44549481279085557	1.1699558457099286	0.6095667988660002	-0.2806702050410047	0.9518443712751911	0.6258824724817	-0.6025465141930543	1.4787778276560812	0.149924538828077	-0.6343512927326243	1.1757580963511869	0.11675612507957753	-0.6127291978296168	0.9173063085515749	0.1035954114677088
83	2.7666666666666666	-0.48792823468329466	0.9037791559392436	0.36832132435859916	-0.5070202282606834	0.8983905517926016	0.48157778531700773	-0.5453163157850721	0.5103282694225781	0.42188141400669044	-0.6273002605391094	0.11226647275428382	0.3732024743480313	0.0	0.0	0.0	0.0	0.0	0.0	0.0	0.0	0.0	-0.46905369547007447	0.9095933866535244	0.2547592246800084	-0.2532658140208987	0.579522213611577	0.2557691524406991	-0.3338629046937984	0.17156733930184542	0.25085064556290015	0.0	0.0	0.0	0.0	0.0	0.0	0.0	0.0	0.0	-0.5501580467419738	1.472216244046429	0.3455004586099104	-0.3281473120951276	1.7682519357642874	0.3519004323146167	-0.3069775773727216	1.6701279084307539	0.3315930178497131	-0.542510913583377	1.471581927992121	0.5341749010852479	-0.4001609443026691	1.1741234603276165	0.6079439075524451	-0.22237106271294238	0.9673256180073202	0.6224033385103501	-0.565570096080815	1.4733089710877554	0.14932525985819906	-0.602497565544503	1.1767133477220955	0.12584539421015495	-0.5847711511084085	0.9108832229377138	0.1048505710158949
84	2.8	-0.44077881955196047	0.8951901487123084	0.36175597095791745	-0.46464731964004485	0.88976794822793	0.4760526824531001	-0.5325608745426483	0.5105704617856521	0.422782537784975	-0.6459370389611361	0.08867195590594742	0.3593414490239083	0.0	0.0	0.0	0.0	0.0	0.0	0.0	0.0	0.0	-0.41800905965836216	0.901026863929706	0.2475015390731627	-0.21879530799352384	0.5580936315044617	0.25997958441248187	-0.21350024272021248	0.1441815138851489	0.23699031139733978	0.0	0.0	0.0	0.0	0.0	0.0	0.0	0.0	0.0	-0.5049376107158584	1.4665688762795106	0.34600872923308085	-0.2563414704208661	1.7652484398910948	0.3257935840455093	-0.24807990179951286	1.6666837367997618	0.3184458323965041	-0.49624792091344966	1.467747659933191	0.5359446417686714	-0.3492224829885347	1.1683864426810036	0.6047404198644137	-0.15594329909641266	0.9705863767681436	0.6155362038165314	-0.5211495745772515	1.4661289351385387	0.14894742120685278	-0.5733254377098506	1.1742899677225067	0.1305918815659847	-0.551260524786378	0.9151688441885413	0.10287234231743553
85	2.8333333333333335	-0.3941319707503398	0.8663103061586964	0.3621974603405913	-0.4237875990015984	0.8597569334597229	0.47145796887113933	-0.5153005291095415	0.5042507059705909	0.4241786961859473	-0.6387043416024277	0.10239138400092238	0.3633464056616983	0.0	0.0	0.0	0.0	0.0	0.0	0.0	0.0	0.0	-0.36493648167412407	0.8738367259814999	0.2529891197451492	-0.1950413733489251	0.5388632628976213	0.26497454314079033	-0.09944442816819797	0.16952401418934682	0.23448106949283215	0.0	0.0	0.0	0.0	0.0	0.0	0.0	0.0	0.0	-0.4547520172751094	1.457318151632489	0.350876569910821	-0.2569358123014299	1.769600141766908	0.35397591758948754	-0.2518653741139334	1.673555492535013	0.3528745923355922	-0.4414816105685454	1.4573484820899842	0.5461266089109298	-0.30439993819092537	1.1626614422636965	0.6030841742054223	-0.0938603984691371	0.9802374518080305	0.6014362987210854	-0.4743403700132876	1.458352302971574	0.14788152001352	-0.5189841528512807	1.1611322734170473	0.12073973202568387	-0.5177763353946051	0.9095334400842938	0.09564324782024763
86	2.8666666666666667	-0.35795662514665144	0.851473450012664	0.3633928297940007	-0.38643683463133044	0.846568047835039	0.47226269824311384	-0.4954200701011129	0.4988047839563622	0.418253405956411	-0.6232231729062545	0.11907926593544828	0.3616887696267464	0.0	0.0	0.0	0.0	0.0	0.0	0.0	0.0	0.0	-0.3298437856235588	0.8573970747237057	0.25465646469754816	-0.14483658376309824	0.5214188900214081	0.2748075931742823	-0.007239875670037205	0.15636642784353208	0.2502331435736414	0.0	0.0	0.0	0.0	0.0	0.0	0.0	0.0	0.0	-0.4105060294689416	1.4501199087726626	0.35200985824094716	-0.22411223017446996	1.7634159363087962	0.3568730784401901	-0.21868321993596546	1.6675866595645896	0.3535818366069551	-0.39868988461642163	1.4519540201075003	0.5449435455360827	-0.2643731972787495	1.1562543038753506	0.6009948664808393	-0.052807431427467987	0.9865870276133628	0.5972050323685548	-0.4294696120086649	1.449397644587647	0.15177183607029593	-0.4840887476277573	1.154999267293326	0.13006269208031063	-0.47702880816471216	0.8975884880424213	0.098257344313515
87	2.9	-0.3129385430400753	0.8477932225963161	0.36574239846077605	-0.3380742023463879	0.8445814251852408	0.473469555950288	-0.459849024801258	0.4916875042610033	0.4219425959883805	-0.6197609224807032	0.1208818842386776	0.36125871237327767	0.0	0.0	0.0	0.0	0.0	0.0	0.0	0.0	0.0	-0.2880527204359066	0.8520320619836156	0.25806699032089436	-0.09834479234492276	0.5123498345756674	0.28208076843710245	0.0491811199245598	0.1489527841167081	0.2578904761100928	0.0	0.0	0.0	0.0	0.0	0.0	0.0	0.0	0.0	-0.36873258522513774	1.4389674701732365	0.34852407396700347	-0.18659309649933237	1.7581837666446587	0.354075498202593	-0.18377885313501197	1.661899750584979	0.3534892758859119	-0.3587995457064079	1.4404582242695514	0.5401175391571786	-0.229667600393487	1.14867926129146	0.5995553158592352	-0.008654192783053143	0.9898540856414774	0.5858878225737559	-0.3857165744751524	1.4384623438892072	0.1496537071081621	-0.4395243625437375	1.1397146787233394	0.1264144347745085	-0.4338470500036638	0.8841281875907033	0.08852098563520851
